<svg width="10" height="7" viewBox="0 0 10 7" fill="none" xmlns="http://www.w3.org/2000/svg">
<path id="Vector" d="M9.80211 1.3871L5.36939 6.82258C5.31662 6.8871 5.25945 6.93269 5.19789 6.95936C5.13632 6.98645 5.07036 7 5 7C4.92964 7 4.86368 6.98645 4.80211 6.95936C4.74055 6.93269 4.68338 6.8871 4.63061 6.82258L0.184697 1.3871C0.0615655 1.23656 0 1.04839 0 0.82258C0 0.596774 0.0659631 0.403226 0.197889 0.241935C0.329815 0.0806451 0.483729 0 0.659631 0C0.835532 0 0.989446 0.0806451 1.12137 0.241935L5 4.98387L8.87863 0.241935C9.00176 0.0913978 9.15339 0.0161285 9.33351 0.0161285C9.51398 0.0161285 9.67019 0.0967741 9.80211 0.258064C9.93404 0.419354 10 0.607527 10 0.82258C10 1.03763 9.93404 1.22581 9.80211 1.3871Z" fill="#FFD233"/>
</svg>
