<svg width="18" height="14" viewBox="0 0 18 14" fill="none" xmlns="http://www.w3.org/2000/svg">
<g id="Frame 3">
<path id="Vector" d="M15.75 0H1.75C0.7875 0 0.00874999 0.7875 0.00874999 1.75L0 12.25C0 13.2125 0.7875 14 1.75 14H15.75C16.7125 14 17.5 13.2125 17.5 12.25V1.75C17.5 0.7875 16.7125 0 15.75 0ZM14.875 12.25H2.625C2.14375 12.25 1.75 11.8562 1.75 11.375V3.5L7.8225 7.2975C8.39125 7.65625 9.10875 7.65625 9.6775 7.2975L15.75 3.5V11.375C15.75 11.8562 15.3562 12.25 14.875 12.25ZM8.75 6.125L1.75 1.75H15.75L8.75 6.125Z" fill="#E9E9E9"/>
</g>
</svg>
