<svg width="20" height="17" viewBox="0 0 20 17" fill="none" xmlns="http://www.w3.org/2000/svg">
<path id="Vector" d="M8.87235 15.3949L8.87162 15.3943C6.28622 13.2223 4.18219 11.4515 2.71868 9.79277C1.25914 8.13849 0.5 6.66441 0.5 5.09537C0.5 2.5447 2.65886 0.5 5.5 0.5C7.10249 0.5 8.639 1.19361 9.63321 2.26678L10 2.6627L10.3668 2.26678C11.361 1.19361 12.8975 0.5 14.5 0.5C17.3411 0.5 19.5 2.5447 19.5 5.09537C19.5 6.66441 18.7409 8.13849 17.2813 9.79277C15.8178 11.4515 13.7138 13.2223 11.1284 15.3943L11.1276 15.3949L10 16.3459L8.87235 15.3949Z" stroke="#636363"/>
</svg>
