<svg width="12" height="15" viewBox="0 0 12 15" fill="none" xmlns="http://www.w3.org/2000/svg">
<path id="Vector" d="M5.96178 7.45223C6.37166 7.45223 6.72266 7.30617 7.01478 7.01404C7.30641 6.72241 7.45223 6.37166 7.45223 5.96178C7.45223 5.55191 7.30641 5.20091 7.01478 4.90878C6.72266 4.61715 6.37166 4.47134 5.96178 4.47134C5.55191 4.47134 5.20116 4.61715 4.90953 4.90878C4.6174 5.20091 4.47134 5.55191 4.47134 5.96178C4.47134 6.37166 4.6174 6.72241 4.90953 7.01404C5.20116 7.30617 5.55191 7.45223 5.96178 7.45223ZM5.96178 14.625C5.86242 14.625 5.76306 14.6064 5.66369 14.5691C5.56433 14.5318 5.47739 14.4822 5.40287 14.4201C3.58949 12.8178 2.23567 11.3306 1.3414 9.95841C0.447134 8.58571 0 7.30318 0 6.11083C0 4.24777 0.599408 2.76354 1.79822 1.65812C2.99654 0.552707 4.3844 0 5.96178 0C7.53917 0 8.92703 0.552707 10.1253 1.65812C11.3242 2.76354 11.9236 4.24777 11.9236 6.11083C11.9236 7.30318 11.4764 8.58571 10.5822 9.95841C9.6879 11.3306 8.33408 12.8178 6.5207 14.4201C6.44618 14.4822 6.35924 14.5318 6.25987 14.5691C6.16051 14.6064 6.06115 14.625 5.96178 14.625Z" fill="#3D3D3D"/>
</svg>
