<svg width="10" height="13" viewBox="0 0 10 13" fill="none" xmlns="http://www.w3.org/2000/svg">
<path id="Vector" d="M4.99013 6.76737C5.29134 6.76737 5.54928 6.64633 5.76395 6.40424C5.97826 6.16258 6.08542 5.87191 6.08542 5.53226C6.08542 5.19261 5.97826 4.90174 5.76395 4.65966C5.54928 4.41799 5.29134 4.29716 4.99013 4.29716C4.68893 4.29716 4.43118 4.41799 4.21687 4.65966C4.00219 4.90174 3.89485 5.19261 3.89485 5.53226C3.89485 5.87191 4.00219 6.16258 4.21687 6.40424C4.43118 6.64633 4.68893 6.76737 4.99013 6.76737ZM4.99013 12.7113C4.91712 12.7113 4.8441 12.6959 4.77108 12.665C4.69806 12.6341 4.63417 12.5929 4.5794 12.5415C3.24681 11.2137 2.25193 9.98131 1.59476 8.84419C0.937593 7.70666 0.609009 6.64386 0.609009 5.65577C0.609009 4.11189 1.04949 2.88193 1.93047 1.9659C2.81107 1.04986 3.83096 0.591843 4.99013 0.591843C6.14931 0.591843 7.1692 1.04986 8.0498 1.9659C8.93077 2.88193 9.37126 4.11189 9.37126 5.65577C9.37126 6.64386 9.04268 7.70666 8.38551 8.84419C7.72834 9.98131 6.73346 11.2137 5.40087 12.5415C5.3461 12.5929 5.28221 12.6341 5.20919 12.665C5.13617 12.6959 5.06315 12.7113 4.99013 12.7113Z" fill="#636363"/>
</svg>
